<svg width="24" height="24" viewBox="0 0 24 24" fill="none" xmlns="http://www.w3.org/2000/svg">
<path d="M23.4316 20.3655L17.9139 14.8474C18.8841 13.3051 19.3978 11.5196 19.3955 9.69755C19.3955 4.34143 15.0535 0 9.69755 0C4.34163 0 0 4.34143 0 9.69755C0 15.0539 4.34143 19.3949 9.69755 19.3949C11.6785 19.3974 13.6123 18.7904 15.2365 17.6563L20.6886 23.1088C20.8686 23.2889 21.0825 23.4317 21.3178 23.529C21.5532 23.6263 21.8055 23.6761 22.0601 23.6757C22.3149 23.6762 22.5672 23.6263 22.8027 23.529C23.0382 23.4317 23.2521 23.2889 23.4322 23.1088C23.7959 22.7449 24.0001 22.2514 23.9999 21.737C23.9998 21.2226 23.7954 20.7293 23.4316 20.3655ZM9.69755 16.253C6.07744 16.253 3.14247 13.3183 3.14247 9.69795C3.14247 6.07764 6.07744 3.14267 9.69755 3.14267C13.3179 3.14267 16.2526 6.07764 16.2526 9.69795C16.2526 13.3183 13.3179 16.253 9.69755 16.253Z" fill="#9E9E9E"/>
</svg>
