<svg width="23" height="22" viewBox="0 0 23 22" fill="none" xmlns="http://www.w3.org/2000/svg">
<path d="M21.1575 7.52684C20.7199 7.46327 20.3022 7.3018 19.9356 7.05443C19.5691 6.80707 19.263 6.4802 19.0403 6.09816C18.8175 5.71612 18.6839 5.28875 18.6492 4.84788C18.6145 4.40702 18.6797 3.96401 18.84 3.55184C18.9419 3.28239 18.9569 2.9878 18.8829 2.70939C18.809 2.43097 18.6497 2.18269 18.4275 1.99934C17.4465 1.17559 16.3299 0.528474 15.1275 0.0868418C14.8537 -0.014871 14.5548 -0.0275792 14.2733 0.0505275C13.9919 0.128634 13.7422 0.293572 13.56 0.521842C13.2857 0.872582 12.9352 1.15626 12.5349 1.35135C12.1347 1.54645 11.6953 1.64784 11.25 1.64784C10.8048 1.64784 10.3653 1.54645 9.96511 1.35135C9.56487 1.15626 9.21431 0.872582 8.94002 0.521842C8.75778 0.293572 8.50816 0.128634 8.2267 0.0505275C7.94525 -0.0275792 7.64632 -0.014871 7.37252 0.0868418C6.26227 0.494573 5.22421 1.0769 4.29752 1.81184C4.06392 1.99677 3.89567 2.25162 3.81739 2.53908C3.73912 2.82654 3.75493 3.13152 3.86252 3.40934C4.03558 3.83241 4.10709 4.29015 4.0713 4.74584C4.0355 5.20153 3.89341 5.6425 3.65642 6.03336C3.41942 6.42421 3.09412 6.75409 2.70661 6.99652C2.3191 7.23895 1.88016 7.38719 1.42502 7.42934C1.12952 7.46094 0.851979 7.58657 0.63325 7.78775C0.41452 7.98892 0.266161 8.25501 0.210016 8.54684C0.0703645 9.23812 1.62303e-05 9.9416 1.62303e-05 10.6468C-0.00101022 11.2373 0.0466513 11.8268 0.142516 12.4093C0.190227 12.7105 0.335826 12.9876 0.556801 13.1977C0.777776 13.4079 1.06182 13.5393 1.36502 13.5718C1.83016 13.6155 2.27808 13.7699 2.67129 14.0222C3.0645 14.2745 3.39156 14.6173 3.62509 15.022C3.85862 15.4266 3.99182 15.8813 4.01356 16.348C4.03529 16.8146 3.94492 17.2798 3.75002 17.7043C3.62246 17.9805 3.59082 18.2914 3.66012 18.5876C3.72942 18.8838 3.89568 19.1484 4.13252 19.3393C5.1076 20.1481 6.21345 20.7848 7.40252 21.2218C7.55457 21.2745 7.71411 21.3024 7.87502 21.3043C8.09564 21.3039 8.31294 21.2505 8.50868 21.1487C8.70443 21.0469 8.87292 20.8997 9.00002 20.7193C9.26733 20.3299 9.62565 20.0115 10.0439 19.792C10.4621 19.5724 10.9276 19.4582 11.4 19.4593C11.8577 19.4599 12.3089 19.5674 12.7178 19.7731C13.1266 19.9788 13.4818 20.2771 13.755 20.6443C13.9367 20.8886 14.1942 21.066 14.4872 21.1487C14.7802 21.2315 15.0923 21.215 15.375 21.1018C16.4623 20.6643 17.4745 20.0595 18.375 19.3093C18.6012 19.1223 18.7623 18.8684 18.8351 18.584C18.9078 18.2997 18.8886 17.9995 18.78 17.7268C18.6036 17.3092 18.5267 16.8563 18.5553 16.4039C18.584 15.9515 18.7174 15.5119 18.9451 15.1198C19.1727 14.7278 19.4884 14.394 19.8671 14.1449C20.2459 13.8958 20.6774 13.7381 21.1275 13.6843C21.4194 13.644 21.6909 13.5117 21.9026 13.3068C22.1143 13.1018 22.2552 12.8348 22.305 12.5443C22.4255 11.9188 22.4907 11.2838 22.5 10.6468C22.5002 9.97495 22.4374 9.30453 22.3125 8.64434C22.2619 8.36032 22.123 8.09947 21.9157 7.89886C21.7083 7.69825 21.4431 7.56808 21.1575 7.52684ZM15 10.6468C15 11.3885 14.7801 12.1135 14.368 12.7302C13.956 13.3469 13.3703 13.8276 12.6851 14.1114C11.9999 14.3952 11.2459 14.4695 10.5184 14.3248C9.791 14.1801 9.12281 13.8229 8.59837 13.2985C8.07392 12.774 7.71677 12.1059 7.57207 11.3784C7.42738 10.651 7.50164 9.897 7.78547 9.21178C8.0693 8.52656 8.54994 7.94089 9.16663 7.52883C9.78331 7.11678 10.5083 6.89684 11.25 6.89684C12.2446 6.89684 13.1984 7.29193 13.9017 7.99519C14.6049 8.69845 15 9.65228 15 10.6468Z" fill="black" fill-opacity="0.75"/>
</svg>
