<svg width="24" height="24" viewBox="0 0 24 24" fill="none" xmlns="http://www.w3.org/2000/svg">
<g clip-path="url(#clip0_1_413)">
<path d="M19.5 15.75C18.932 15.7506 18.3716 15.8801 17.861 16.1289C17.3504 16.3778 16.903 16.7393 16.5525 17.1863L8.11875 12.9713C8.29133 12.3353 8.29133 11.6648 8.11875 11.0288L16.5525 6.81378C18.7125 9.58503 23.25 8.05878 23.25 4.50003C23.2517 3.96517 23.139 3.43613 22.9194 2.94842C22.6999 2.4607 22.3785 2.0256 21.9769 1.67233C21.5753 1.31905 21.1028 1.05576 20.5911 0.900145C20.0794 0.744528 19.5403 0.700177 19.01 0.770071C18.4797 0.839965 17.9705 1.02249 17.5166 1.30538C17.0627 1.58828 16.6745 1.96501 16.3782 2.41028C16.0818 2.85555 15.8842 3.35905 15.7985 3.88701C15.7128 4.41496 15.741 4.95513 15.8812 5.47128L7.4475 9.68628C5.2875 6.91503 0.75 8.44128 0.75 12C0.75 15.5588 5.2875 17.085 7.4475 14.3138L15.8812 18.5288C15.7323 19.0841 15.7131 19.6663 15.8251 20.2303C15.9371 20.7943 16.1772 21.3249 16.527 21.7813C16.8768 22.2377 17.3268 22.6075 17.8423 22.8621C18.3578 23.1168 18.925 23.2495 19.5 23.25C24.4762 23.0438 24.4725 15.9563 19.5 15.75Z" fill="black" fill-opacity="0.75"/>
</g>
<defs>
<clipPath id="clip0_1_413">
<rect width="24" height="24" fill="white"/>
</clipPath>
</defs>
</svg>
